<svg width="129" height="28" viewBox="0 0 129 28" fill="none" xmlns="http://www.w3.org/2000/svg">
<path d="M0.575348 28H10.0685C14.57 28 18.2192 24.3508 18.2192 19.8493H8.72603C4.22453 19.8493 0.575348 23.4985 0.575348 28Z" fill="#F22BB2"/>
<path d="M1 8.15069V20.137C5.5015 20.137 9.15069 16.4878 9.15069 11.9863V0C4.64919 0 1 3.64919 1 8.15069Z" fill="#8C30F5"/>
<path d="M27.4247 0H17.9315C13.43 0 9.78082 3.64919 9.78082 8.15068H19.274C23.7755 8.15068 27.4247 4.5015 27.4247 0Z" fill="#FE9A22"/>
<path d="M27.4247 19.3699V7.38358C22.9232 7.38358 19.274 11.0328 19.274 15.5343V27.5206C23.7755 27.5206 27.4247 23.8714 27.4247 19.3699Z" fill="#2EC5CE"/>
<path d="M46.596 10.44H43.74V18H41.01V10.44H38.14V8.06H46.596V10.44ZM46.0863 15.774C46.0863 15.2793 46.2216 14.8453 46.4923 14.472C46.763 14.0893 47.1363 13.7907 47.6123 13.576C48.0976 13.3613 48.6483 13.254 49.2643 13.254C49.8616 13.254 50.3563 13.3473 50.7483 13.534V13.31C50.7483 12.9647 50.6456 12.708 50.4403 12.54C50.2443 12.372 49.9223 12.288 49.4743 12.288C49.0636 12.288 48.6763 12.358 48.3123 12.498C47.9576 12.6287 47.5843 12.8247 47.1923 13.086L46.4223 11.434C47.393 10.8087 48.499 10.496 49.7403 10.496C50.907 10.496 51.8076 10.762 52.4423 11.294C53.0863 11.8167 53.4083 12.596 53.4083 13.632V15.06C53.4083 15.312 53.4456 15.4893 53.5203 15.592C53.595 15.6853 53.7256 15.7413 53.9123 15.76V18C53.6976 18.0467 53.4923 18.0793 53.2963 18.098C53.1096 18.126 52.9416 18.14 52.7923 18.14C52.3163 18.14 51.9523 18.056 51.7003 17.888C51.4576 17.7107 51.299 17.454 51.2243 17.118L51.1683 16.852C50.4963 17.7107 49.661 18.14 48.6623 18.14C48.177 18.14 47.7383 18.0373 47.3463 17.832C46.9543 17.6267 46.6463 17.3467 46.4223 16.992C46.1983 16.628 46.0863 16.222 46.0863 15.774ZM50.3983 15.956C50.6316 15.7973 50.7483 15.6247 50.7483 15.438V14.892C50.599 14.836 50.4263 14.7893 50.2303 14.752C50.0436 14.7147 49.8756 14.696 49.7263 14.696C49.409 14.696 49.1383 14.7753 48.9143 14.934C48.6996 15.0927 48.5923 15.2933 48.5923 15.536C48.5923 15.7413 48.6716 15.9093 48.8303 16.04C48.9983 16.1707 49.2083 16.236 49.4603 16.236C49.8056 16.236 50.1183 16.1427 50.3983 15.956ZM58.5132 18.14C57.6452 18.14 56.9078 17.9627 56.3012 17.608C55.7038 17.244 55.2465 16.7727 54.9292 16.194C54.6212 15.6153 54.4672 14.99 54.4672 14.318C54.4672 13.646 54.6212 13.0207 54.9292 12.442C55.2465 11.854 55.7038 11.3827 56.3012 11.028C56.9078 10.6733 57.6452 10.496 58.5132 10.496C59.3998 10.496 60.1465 10.6827 60.7532 11.056C61.3598 11.4293 61.8125 11.91 62.1112 12.498L59.5212 13.282C59.2692 12.918 58.9285 12.736 58.4992 12.736C58.1352 12.736 57.8272 12.876 57.5752 13.156C57.3232 13.436 57.1972 13.8233 57.1972 14.318C57.1972 14.8127 57.3232 15.2 57.5752 15.48C57.8272 15.76 58.1352 15.9 58.4992 15.9C58.9285 15.9 59.2692 15.718 59.5212 15.354L62.1112 16.138C61.8125 16.726 61.3598 17.2067 60.7532 17.58C60.1465 17.9533 59.3998 18.14 58.5132 18.14ZM62.9813 18V10.636H65.6273V13.114H66.0473L67.6573 10.636H70.4853L68.0493 14.164L70.7233 18H67.6993L65.9772 15.396H65.6273V18H62.9813ZM79.4769 10.44H76.6209V18H73.8909V10.44H71.0209V8.06H79.4769V10.44ZM85.0811 18.14C83.9798 18.14 83.2145 17.7293 82.7851 16.908V20.982H80.1251V10.636H82.4351V11.742C82.6965 11.3407 83.0185 11.0327 83.4011 10.818C83.7931 10.6033 84.2645 10.496 84.8151 10.496C85.4685 10.496 86.0518 10.664 86.5651 11C87.0785 11.3267 87.4798 11.7747 87.7691 12.344C88.0678 12.9133 88.2171 13.562 88.2171 14.29C88.2171 15.0273 88.0818 15.6853 87.8111 16.264C87.5405 16.8427 87.1671 17.3 86.6911 17.636C86.2245 17.972 85.6878 18.14 85.0811 18.14ZM84.1571 15.9C84.5398 15.9 84.8571 15.7413 85.1091 15.424C85.3705 15.1067 85.5011 14.724 85.5011 14.276C85.5011 13.8093 85.3658 13.436 85.0951 13.156C84.8338 12.876 84.4838 12.736 84.0451 12.736C83.5598 12.736 83.1398 12.988 82.7851 13.492V14.766C82.9158 15.0833 83.1071 15.354 83.3591 15.578C83.6111 15.7927 83.8771 15.9 84.1571 15.9ZM92.8156 18.14C91.9569 18.14 91.2242 17.9673 90.6176 17.622C90.0202 17.2767 89.5629 16.8193 89.2456 16.25C88.9376 15.6807 88.7836 15.0693 88.7836 14.416C88.7836 13.7067 88.9376 13.058 89.2456 12.47C89.5536 11.8727 90.0062 11.3967 90.6036 11.042C91.2009 10.678 91.9382 10.496 92.8156 10.496C93.6929 10.496 94.4302 10.6733 95.0276 11.028C95.6249 11.3827 96.0776 11.8493 96.3856 12.428C96.6936 13.0067 96.8476 13.6367 96.8476 14.318C96.8476 14.6073 96.8242 14.878 96.7776 15.13H91.6116C91.6396 15.522 91.7842 15.8067 92.0456 15.984C92.3069 16.152 92.5916 16.236 92.8996 16.236C93.1889 16.236 93.4596 16.1707 93.7116 16.04C93.9729 15.9093 94.1456 15.7273 94.2296 15.494L96.4836 16.138C96.1849 16.726 95.7229 17.2067 95.0976 17.58C94.4722 17.9533 93.7116 18.14 92.8156 18.14ZM91.5556 13.534H93.9916C93.9542 13.1793 93.8236 12.8993 93.5996 12.694C93.3849 12.4887 93.1096 12.386 92.7736 12.386C92.4376 12.386 92.1622 12.4887 91.9476 12.694C91.7329 12.8993 91.6022 13.1793 91.5556 13.534ZM97.7488 18V10.636H100.395V13.114H100.815L102.425 10.636H105.253L102.817 14.164L105.491 18H102.467L100.745 15.396H100.395V18H97.7488ZM109.823 18.14C108.965 18.14 108.232 17.9673 107.625 17.622C107.028 17.2767 106.571 16.8193 106.253 16.25C105.945 15.6807 105.791 15.0693 105.791 14.416C105.791 13.7067 105.945 13.058 106.253 12.47C106.561 11.8727 107.014 11.3967 107.611 11.042C108.209 10.678 108.946 10.496 109.823 10.496C110.701 10.496 111.438 10.6733 112.035 11.028C112.633 11.3827 113.085 11.8493 113.393 12.428C113.701 13.0067 113.855 13.6367 113.855 14.318C113.855 14.6073 113.832 14.878 113.785 15.13H108.619C108.647 15.522 108.792 15.8067 109.053 15.984C109.315 16.152 109.599 16.236 109.907 16.236C110.197 16.236 110.467 16.1707 110.719 16.04C110.981 15.9093 111.153 15.7273 111.237 15.494L113.491 16.138C113.193 16.726 112.731 17.2067 112.105 17.58C111.48 17.9533 110.719 18.14 109.823 18.14ZM108.563 13.534H110.999C110.962 13.1793 110.831 12.8993 110.607 12.694C110.393 12.4887 110.117 12.386 109.781 12.386C109.445 12.386 109.17 12.4887 108.955 12.694C108.741 12.8993 108.61 13.1793 108.563 13.534ZM119.685 18.14C118.583 18.14 117.818 17.7293 117.389 16.908V20.982H114.729V10.636H117.039V11.742C117.3 11.3407 117.622 11.0327 118.005 10.818C118.397 10.6033 118.868 10.496 119.419 10.496C120.072 10.496 120.655 10.664 121.169 11C121.682 11.3267 122.083 11.7747 122.373 12.344C122.671 12.9133 122.821 13.562 122.821 14.29C122.821 15.0273 122.685 15.6853 122.415 16.264C122.144 16.8427 121.771 17.3 121.295 17.636C120.828 17.972 120.291 18.14 119.685 18.14ZM118.761 15.9C119.143 15.9 119.461 15.7413 119.713 15.424C119.974 15.1067 120.105 14.724 120.105 14.276C120.105 13.8093 119.969 13.436 119.699 13.156C119.437 12.876 119.087 12.736 118.649 12.736C118.163 12.736 117.743 12.988 117.389 13.492V14.766C117.519 15.0833 117.711 15.354 117.963 15.578C118.215 15.7927 118.481 15.9 118.761 15.9Z" fill="black"/>
</svg>
